<svg xmlns="http://www.w3.org/2000/svg" xmlns:xlink="http://www.w3.org/1999/xlink" width="64" height="64"><defs><clipPath id="f"><path d="M0 800h800V0H0v800z"/></clipPath><clipPath><path d="M592.353 272.456H774.83V126.054H592.352v146.402z"/></clipPath><clipPath><path d="M627.663 237.146H774.83V126.054H627.662v111.092z"/></clipPath><clipPath><path d="M627.487 237.322h147.166V126.23H627.487V237.32z"/></clipPath><clipPath><path d="M627.312 237.497H774.48V126.405H627.31v111.092z"/></clipPath><clipPath><path d="M627.136 237.672h147.166v-111.09H627.136v111.09z"/></clipPath><clipPath><path d="M626.96 237.85h147.166V126.756H626.96V237.85z"/></clipPath><clipPath><path d="M626.785 238.023H773.95v-111.09H626.786v111.09z"/></clipPath><clipPath><path d="M626.61 238.2h147.165V127.106H626.61V238.2z"/></clipPath><clipPath><path d="M626.434 238.375H773.6V127.283H626.434v111.092z"/></clipPath><clipPath><path d="M626.258 238.55h147.166V127.46H626.258v111.09z"/></clipPath><clipPath><path d="M626.082 238.728h147.165V127.635H626.082v111.093z"/></clipPath><clipPath><path d="M625.907 238.902h147.165V127.81H625.907v111.092z"/></clipPath><clipPath><path d="M625.73 239.078h147.166V127.986H625.73v111.092z"/></clipPath><clipPath><path d="M625.555 239.254H772.72V128.162H625.556v111.092z"/></clipPath><clipPath><path d="M625.38 239.43h147.166V128.337H625.38v111.09z"/></clipPath><clipPath><path d="M625.204 239.604H772.37v-111.09H625.204v111.09z"/></clipPath><clipPath><path d="M625.028 239.78h147.166V128.688H625.028V239.78z"/></clipPath><clipPath><path d="M624.853 239.956H772.02v-111.09H624.852v111.09z"/></clipPath><clipPath><path d="M624.677 240.132h147.166V129.04H624.677v111.092z"/></clipPath><clipPath><path d="M624.5 240.308h147.167V129.216H624.5v111.092z"/></clipPath><clipPath><path d="M624.325 240.483H771.49v-111.09H624.326v111.09z"/></clipPath><clipPath><path d="M624.15 240.66h147.165V129.566H624.15V240.66z"/></clipPath><clipPath><path d="M623.975 240.834H771.14V129.742H623.975v111.092z"/></clipPath><clipPath><path d="M623.8 241.01h147.164V129.918H623.8V241.01z"/></clipPath><clipPath><path d="M623.623 241.186H770.79V130.094H623.622v111.092z"/></clipPath><clipPath><path d="M623.446 241.362h147.166v-111.09H623.446v111.09z"/></clipPath><clipPath><path d="M623.27 241.538h147.167V130.446H623.27v111.092z"/></clipPath><clipPath><path d="M623.096 241.713h147.166V130.62H623.096v111.093z"/></clipPath><clipPath><path d="M622.92 241.89h147.166V130.796H622.92V241.89z"/></clipPath><clipPath><path d="M622.744 242.064H769.91v-111.09H622.744v111.09z"/></clipPath><clipPath><path d="M622.568 242.24h147.167V131.147H622.568v111.09z"/></clipPath><clipPath><path d="M622.394 242.415H769.56v-111.09H622.394v111.09z"/></clipPath><clipPath><path d="M622.218 242.592h147.165V131.5H622.218V242.59z"/></clipPath><clipPath><path d="M622.042 242.767h147.165V131.675H622.042v111.092z"/></clipPath><clipPath><path d="M621.865 242.942h147.167v-111.09H621.865v111.09z"/></clipPath><clipPath><path d="M621.69 243.118h147.166V132.026H621.69v111.092z"/></clipPath><clipPath><path d="M621.515 243.294H768.68V132.202H621.516v111.092z"/></clipPath><clipPath><path d="M621.34 243.47h147.165V132.378H621.34V243.47z"/></clipPath><clipPath><path d="M621.163 243.646H768.33V132.554H621.162v111.092z"/></clipPath><clipPath><path d="M620.987 243.82h147.166V132.73H620.987v111.09z"/></clipPath><clipPath><path d="M620.812 243.997h147.166V132.905H620.812v111.092z"/></clipPath><clipPath><path d="M620.636 244.173h147.166V133.08H620.636v111.093z"/></clipPath><clipPath><path d="M620.46 244.35h147.166V133.256H620.46V244.35z"/></clipPath><clipPath><path d="M620.285 244.523H767.45v-111.09H620.286v111.09z"/></clipPath><clipPath><path d="M620.11 244.7h147.165V133.606H620.11V244.7z"/></clipPath><clipPath><path d="M619.934 244.876H767.1V133.783H619.934v111.093z"/></clipPath><clipPath><path d="M619.758 245.05h147.166V133.96H619.758v111.09z"/></clipPath><clipPath><path d="M619.582 245.227h147.166V134.135H619.582v111.092z"/></clipPath><clipPath><path d="M619.406 245.4h147.166V134.31H619.406V245.4z"/></clipPath><clipPath><path d="M619.23 245.578h147.166V134.486H619.23v111.092z"/></clipPath><clipPath><path d="M619.055 245.754H766.22V134.662H619.056v111.092z"/></clipPath><clipPath><path d="M618.88 245.93h147.166V134.836H618.88V245.93z"/></clipPath><clipPath><path d="M618.704 246.104H765.87v-111.09H618.704v111.09z"/></clipPath><clipPath><path d="M618.528 246.28h147.165V135.19H618.528v111.09z"/></clipPath><clipPath><path d="M618.353 246.456H765.52V135.364H618.352v111.092z"/></clipPath><clipPath><path d="M618.177 246.632h147.166V135.54H618.177v111.092z"/></clipPath><clipPath><path d="M618 246.808h147.167V135.716H618v111.092z"/></clipPath><clipPath><path d="M617.825 246.983H764.99v-111.09H617.826v111.09z"/></clipPath><clipPath><path d="M617.65 247.16h147.165V136.066H617.65V247.16z"/></clipPath><clipPath><path d="M617.475 247.334H764.64v-111.09H617.475v111.09z"/></clipPath><clipPath><path d="M617.3 247.51h147.164V136.42H617.3v111.09z"/></clipPath><clipPath><path d="M617.122 247.687h147.166V136.595H617.122v111.092z"/></clipPath><clipPath><path d="M616.947 247.86h147.166V136.77H616.947v111.09z"/></clipPath><clipPath><path d="M616.77 248.037H763.94V136.945H616.77v111.092z"/></clipPath><clipPath><path d="M616.596 248.213h147.166V137.12H616.596v111.093z"/></clipPath><clipPath><path d="M616.42 248.39h147.166V137.296H616.42V248.39z"/></clipPath><clipPath><path d="M616.244 248.564H763.41v-111.09H616.244v111.09z"/></clipPath><clipPath><path d="M616.07 248.74h147.165V137.647H616.07V248.74z"/></clipPath><clipPath><path d="M615.894 248.916H763.06V137.823H615.894v111.093z"/></clipPath><clipPath><path d="M615.718 249.092h147.165V138H615.718v111.092z"/></clipPath><clipPath><path d="M615.54 249.267h147.167V138.175H615.54v111.092z"/></clipPath><clipPath><path d="M615.366 249.442h147.166v-111.09H615.366v111.09z"/></clipPath><clipPath><path d="M615.19 249.618h147.166V138.526H615.19v111.092z"/></clipPath><clipPath><path d="M615.015 249.794H762.18V138.702H615.016v111.092z"/></clipPath><clipPath><path d="M614.84 249.97h147.165V138.878H614.84V249.97z"/></clipPath><clipPath><path d="M614.663 250.146H761.83V139.054H614.662v111.092z"/></clipPath><clipPath><path d="M614.487 250.32h147.166V139.23H614.487v111.09z"/></clipPath><clipPath><path d="M614.312 250.497h147.166V139.405H614.312v111.092z"/></clipPath><clipPath><path d="M614.136 250.673h147.166V139.58H614.136v111.093z"/></clipPath><clipPath><path d="M613.96 250.848h147.167V139.756H613.96v111.092z"/></clipPath><clipPath><path d="M613.784 251.023H760.95v-111.09H613.785v111.09z"/></clipPath><clipPath><path d="M613.608 251.2h147.166V140.107H613.608v111.09z"/></clipPath><clipPath><path d="M613.434 251.375H760.6V140.283H613.434v111.092z"/></clipPath><clipPath><path d="M613.26 251.55h147.165V140.46H613.26v111.09z"/></clipPath><clipPath><path d="M613.082 251.727h147.166V140.635H613.082v111.092z"/></clipPath><clipPath><path d="M612.906 251.902h147.166v-111.09H612.906V251.9z"/></clipPath><clipPath><path d="M612.73 252.078h147.166V140.986H612.73v111.092z"/></clipPath><clipPath><path d="M612.556 252.253h147.166V141.16H612.556v111.093z"/></clipPath><clipPath><path d="M612.38 252.43h147.166V141.336H612.38V252.43z"/></clipPath><clipPath><path d="M612.203 252.605H759.37V141.513H612.202v111.092z"/></clipPath><clipPath><path d="M612.028 252.78h147.166V141.688H612.028V252.78z"/></clipPath><clipPath><path d="M611.853 252.956H759.02V141.864H611.852v111.092z"/></clipPath><clipPath><path d="M611.677 253.132h147.166V142.04H611.677v111.092z"/></clipPath><clipPath><path d="M611.5 253.308h147.167V142.216H611.5v111.092z"/></clipPath><clipPath><path d="M611.325 253.483H758.49v-111.09H611.326v111.09z"/></clipPath><clipPath><path d="M611.15 253.66h147.165V142.565H611.15V253.66z"/></clipPath><clipPath><path d="M610.974 253.835H758.14V142.743H610.974v111.092z"/></clipPath><clipPath><path d="M610.798 254.01h147.166V142.92H610.798v111.09z"/></clipPath><clipPath><path d="M610.623 254.187h147.165V143.095H610.623v111.092z"/></clipPath><clipPath><path d="M610.447 254.36h147.166V143.27H610.447v111.09z"/></clipPath><clipPath><path d="M610.27 254.538h147.167V143.445H610.27v111.093z"/></clipPath><clipPath><path d="M610.096 254.714H757.26V143.622H610.097v111.092z"/></clipPath><clipPath><path d="M609.92 254.89h147.166V143.796H609.92V254.89z"/></clipPath><clipPath><path d="M609.744 255.063H756.91v-111.09H609.745v111.09z"/></clipPath><clipPath><path d="M609.568 255.24h147.167V144.147H609.568V255.24z"/></clipPath><clipPath><path d="M609.394 255.415H756.56V144.323H609.394v111.092z"/></clipPath><clipPath><path d="M609.218 255.59h147.166V144.5H609.218v111.09z"/></clipPath><clipPath><path d="M609.042 255.767h147.166V144.675H609.042v111.092z"/></clipPath><clipPath><path d="M608.866 255.942h147.166v-111.09H608.866v111.09z"/></clipPath><clipPath><path d="M608.69 256.118h147.166V145.026H608.69v111.092z"/></clipPath><clipPath><path d="M608.515 256.294H755.68V145.202H608.516v111.092z"/></clipPath><clipPath><path d="M608.34 256.47h147.165V145.378H608.34V256.47z"/></clipPath><clipPath><path d="M608.163 256.646H755.33V145.554H608.162v111.092z"/></clipPath><clipPath><path d="M607.987 256.82h147.166V145.73H607.987v111.09z"/></clipPath><clipPath><path d="M607.812 256.997h147.166V145.905H607.812v111.092z"/></clipPath><clipPath><path d="M607.636 257.173h147.166V146.08H607.636v111.093z"/></clipPath><clipPath><path d="M607.46 257.348h147.167v-111.09H607.46v111.09z"/></clipPath><clipPath><path d="M607.284 257.524H754.45V146.432H607.285v111.092z"/></clipPath><clipPath><path d="M607.11 257.7h147.165V146.606H607.11V257.7z"/></clipPath><clipPath><path d="M606.934 257.875H754.1V146.783H606.934v111.092z"/></clipPath><clipPath><path d="M606.758 258.05h147.166V146.96H606.758v111.09z"/></clipPath><clipPath><path d="M606.582 258.227h147.166V147.134H606.582v111.093z"/></clipPath><clipPath><path d="M606.407 258.402h147.166v-111.09H606.407V258.4z"/></clipPath><clipPath><path d="M606.23 258.578h147.167V147.486H606.23v111.092z"/></clipPath><clipPath><path d="M606.056 258.753h147.166V147.66H606.056v111.093z"/></clipPath><clipPath><path d="M605.88 258.93h147.165V147.836H605.88V258.93z"/></clipPath><clipPath><path d="M605.704 259.104H752.87v-111.09H605.704v111.09z"/></clipPath><clipPath><path d="M605.528 259.28h147.166V148.188H605.528V259.28z"/></clipPath><clipPath><path d="M605.353 259.456H752.52V148.364H605.352v111.092z"/></clipPath><clipPath><path d="M605.177 259.632h147.166V148.54H605.177v111.092z"/></clipPath><clipPath><path d="M605 259.808h147.167V148.716H605v111.092z"/></clipPath><clipPath><path d="M604.825 259.983H751.99v-111.09H604.826v111.09z"/></clipPath><clipPath><path d="M604.65 260.16h147.165V149.066H604.65V260.16z"/></clipPath><clipPath><path d="M604.475 260.334H751.64v-111.09H604.475v111.09z"/></clipPath><clipPath><path d="M604.298 260.51h147.166V149.42H604.298v111.09z"/></clipPath><clipPath><path d="M604.123 260.686H751.29V149.594H604.122v111.092z"/></clipPath><clipPath><path d="M603.947 260.86h147.166V149.77H603.947v111.09z"/></clipPath><clipPath><path d="M603.77 261.037H750.94V149.945H603.77v111.092z"/></clipPath><clipPath><path d="M603.596 261.213h147.166V150.12H603.596v111.093z"/></clipPath><clipPath><path d="M603.42 261.39h147.166V150.296H603.42V261.39z"/></clipPath><clipPath><path d="M603.244 261.564H750.41v-111.09H603.245v111.09z"/></clipPath><clipPath><path d="M603.068 261.74h147.167V150.646H603.068V261.74z"/></clipPath><clipPath><path d="M602.894 261.916H750.06V150.823H602.893v111.093z"/></clipPath><clipPath><path d="M602.718 262.09h147.165V151H602.718v111.09z"/></clipPath><clipPath><path d="M602.542 262.267h147.166V151.175H602.542v111.092z"/></clipPath><clipPath><path d="M602.366 262.442h147.166v-111.09H602.366v111.09z"/></clipPath><clipPath><path d="M602.19 262.618h147.166V151.526H602.19v111.092z"/></clipPath><clipPath><path d="M602.015 262.794H749.18V151.702H602.016v111.092z"/></clipPath><clipPath><path d="M601.84 262.97h147.165V151.878H601.84V262.97z"/></clipPath><clipPath><path d="M601.663 263.146H748.83V152.054H601.662v111.092z"/></clipPath><clipPath><path d="M601.487 263.32h147.166V152.23H601.487v111.09z"/></clipPath><clipPath><path d="M601.312 263.497h147.166V152.405H601.312v111.092z"/></clipPath><clipPath><path d="M601.136 263.672h147.166v-111.09H601.136v111.09z"/></clipPath><clipPath><path d="M600.96 263.85h147.167V152.755H600.96V263.85z"/></clipPath><clipPath><path d="M600.785 264.023H747.95v-111.09H600.786v111.09z"/></clipPath><clipPath><path d="M600.61 264.2h147.165V153.106H600.61V264.2z"/></clipPath><clipPath><path d="M600.434 264.375H747.6V153.283H600.434v111.092z"/></clipPath><clipPath><path d="M600.258 264.55h147.166V153.46H600.258v111.09z"/></clipPath><clipPath><path d="M600.082 264.727h147.166V153.635H600.082v111.092z"/></clipPath><clipPath><path d="M599.906 264.902h147.167V153.81H599.906v111.092z"/></clipPath><clipPath><path d="M599.73 265.077h147.166v-111.09H599.73v111.09z"/></clipPath><clipPath><path d="M599.555 265.254H746.72V154.16H599.556v111.094z"/></clipPath><clipPath><path d="M599.38 265.43h147.166V154.336H599.38V265.43z"/></clipPath><clipPath><path d="M599.204 265.604H746.37v-111.09H599.204v111.09z"/></clipPath><clipPath><path d="M599.028 265.78h147.166V154.688H599.028V265.78z"/></clipPath><clipPath><path d="M598.853 265.956H746.02V154.864H598.852v111.092z"/></clipPath><clipPath><path d="M598.677 266.132h147.166V155.04H598.677v111.092z"/></clipPath><clipPath><path d="M598.5 266.308h147.167V155.216H598.5v111.092z"/></clipPath><clipPath><path d="M598.325 266.483H745.49v-111.09H598.326v111.09z"/></clipPath><clipPath><path d="M598.15 266.658h147.165v-111.09H598.15v111.09z"/></clipPath><clipPath><path d="M597.974 266.835H745.14V155.742H597.975v111.093z"/></clipPath><clipPath><path d="M597.8 267.01h147.165V155.918H597.8V267.01z"/></clipPath><clipPath><path d="M597.622 267.186H744.79v-111.09H597.62v111.09z"/></clipPath><clipPath><path d="M597.447 267.36h147.166V156.27H597.447v111.09z"/></clipPath><clipPath><path d="M597.27 267.537h147.167V156.445H597.27v111.092z"/></clipPath><clipPath><path d="M597.096 267.713h147.166V156.62H597.096v111.093z"/></clipPath><clipPath><path d="M596.92 267.89h147.166V156.796H596.92V267.89z"/></clipPath><clipPath><path d="M596.745 268.064H743.91v-111.09H596.745v111.09z"/></clipPath><clipPath><path d="M596.568 268.24h147.166V157.148H596.568V268.24z"/></clipPath><clipPath><path d="M596.394 268.415H743.56V157.323H596.393v111.092z"/></clipPath><clipPath><path d="M596.218 268.592h147.165V157.5H596.218V268.59z"/></clipPath><clipPath><path d="M596.042 268.767h147.166V157.675H596.042v111.092z"/></clipPath><clipPath><path d="M595.866 268.942h147.166v-111.09H595.866v111.09z"/></clipPath><clipPath><path d="M595.69 269.118h147.166V158.026H595.69v111.092z"/></clipPath><clipPath><path d="M595.515 269.294H742.68V158.202H595.516v111.092z"/></clipPath><clipPath><path d="M595.34 269.47h147.165V158.378H595.34V269.47z"/></clipPath><clipPath><path d="M595.163 269.646H742.33V158.554H595.162v111.092z"/></clipPath><clipPath><path d="M594.987 269.82h147.166V158.73H594.987v111.09z"/></clipPath><clipPath><path d="M594.812 269.996H741.98V158.904H594.81v111.092z"/></clipPath><clipPath><path d="M594.637 270.173h147.166V159.08H594.637v111.093z"/></clipPath><clipPath><path d="M594.46 270.348h147.167v-111.09H594.46v111.09z"/></clipPath><clipPath><path d="M594.285 270.523H741.45v-111.09H594.285v111.09z"/></clipPath><clipPath><path d="M594.11 270.7h147.165V159.606H594.11V270.7z"/></clipPath><clipPath><path d="M593.934 270.875H741.1V159.783H593.934v111.092z"/></clipPath><clipPath><path d="M593.758 271.05h147.166V159.96H593.758v111.09z"/></clipPath><clipPath><path d="M593.582 271.226h147.166v-111.09H593.582v111.09z"/></clipPath><clipPath><path d="M593.407 271.402h147.165V160.31H593.407v111.092z"/></clipPath><clipPath><path d="M593.23 271.578h147.166V160.486H593.23v111.092z"/></clipPath><clipPath><path d="M593.055 271.753H740.22v-111.09H593.056v111.09z"/></clipPath><clipPath><path d="M592.88 271.93h147.166V160.836H592.88V271.93z"/></clipPath><clipPath><path d="M592.704 272.105H739.87V161.013H592.704v111.092z"/></clipPath><clipPath><path d="M592.528 272.28h147.166V161.188H592.528V272.28z"/></clipPath><clipPath><path d="M592.353 272.456H739.52v-36.994H592.352v36.994z"/></clipPath><clipPath><path d="M592.353 235.3H739.52v-73.936H592.352V235.3z"/></clipPath><clipPath><path d="M268.866 415.564h347.52V114.337h-347.52v301.227z"/></clipPath><clipPath><path d="M349.18 335.25h267.206V114.338H349.18V335.25z"/></clipPath><clipPath><path d="M348.78 335.65h267.205V114.736H348.78V335.65z"/></clipPath><clipPath><path d="M348.382 336.05h267.205V115.136H348.382V336.05z"/></clipPath><clipPath><path d="M347.98 336.45H615.19V115.535H347.98V336.45z"/></clipPath><clipPath><path d="M347.582 336.85h267.205V115.936H347.582V336.85z"/></clipPath><clipPath><path d="M347.184 337.25H614.39V116.334H347.183V337.25z"/></clipPath><clipPath><path d="M346.783 337.648H613.99V116.734H346.782v220.914z"/></clipPath><clipPath><path d="M346.384 338.048H613.59V117.134H346.383v220.914z"/></clipPath><clipPath><path d="M345.983 338.447h267.205V117.533H345.983v220.914z"/></clipPath><clipPath><path d="M345.584 338.848H612.79V117.933H345.583v220.915z"/></clipPath><clipPath><path d="M345.186 339.246H612.39V118.332H345.186v220.914z"/></clipPath><clipPath><path d="M344.785 339.646H611.99V118.732H344.785v220.914z"/></clipPath><clipPath><path d="M344.386 340.046H611.59V119.132H344.387v220.914z"/></clipPath><clipPath><path d="M343.986 340.445H611.19V119.53H343.987v220.915z"/></clipPath><clipPath><path d="M343.587 340.845h267.205V119.93H343.587v220.915z"/></clipPath><clipPath><path d="M343.187 341.244h267.206V120.33H343.187v220.914z"/></clipPath><clipPath><path d="M342.787 341.645h267.205V120.73H342.787v220.915z"/></clipPath><clipPath><path d="M342.388 342.044h267.205V121.13H342.388v220.914z"/></clipPath><clipPath><path d="M341.988 342.442h267.205V121.53H341.988V342.44z"/></clipPath><clipPath><path d="M341.59 342.843h267.204V121.93H341.59v220.913z"/></clipPath><clipPath><path d="M341.188 343.242h267.207V122.328H341.188v220.914z"/></clipPath><clipPath><path d="M340.79 343.642h267.205V122.728H340.79v220.914z"/></clipPath><clipPath><path d="M340.39 344.04h267.206V123.128H340.39V344.04z"/></clipPath><clipPath><path d="M339.99 344.44h267.206V123.527H339.99V344.44z"/></clipPath><clipPath><path d="M339.59 344.84h267.206V123.928H339.59V344.84z"/></clipPath><clipPath><path d="M339.19 345.24h267.206V124.326H339.19V345.24z"/></clipPath><clipPath><path d="M338.792 345.64h267.205V124.726H338.792V345.64z"/></clipPath><clipPath><path d="M338.393 346.04h267.204V125.124H338.393V346.04z"/></clipPath><clipPath><path d="M337.992 346.438h267.205V125.524H337.992v220.914z"/></clipPath><clipPath><path d="M337.594 346.838H604.8V125.924H337.593v220.914z"/></clipPath><clipPath><path d="M337.193 347.238h267.205V126.324H337.193v220.914z"/></clipPath><clipPath><path d="M336.794 347.638H604V126.724H336.793v220.914z"/></clipPath><clipPath><path d="M336.394 348.037H603.6V127.123H336.394v220.914z"/></clipPath><clipPath><path d="M335.994 348.437H603.2V127.523H335.993v220.914z"/></clipPath><clipPath><path d="M335.596 348.836H602.8V127.922H335.597v220.914z"/></clipPath><clipPath><path d="M335.195 349.236H602.4V128.32H335.196v220.916z"/></clipPath><clipPath><path d="M334.796 349.636H602V128.72H334.797v220.916z"/></clipPath><clipPath><path d="M334.397 350.035h267.205V129.12H334.397v220.915z"/></clipPath><clipPath><path d="M333.997 350.435h267.205V129.52H333.997v220.915z"/></clipPath><clipPath><path d="M333.598 350.834h267.204V129.92H333.598v220.914z"/></clipPath><clipPath><path d="M333.197 351.234h267.205V130.32H333.197v220.914z"/></clipPath><clipPath><path d="M332.798 351.634h267.205V130.72H332.798v220.914z"/></clipPath><clipPath><path d="M332.4 352.033h267.204V131.118H332.4v220.915z"/></clipPath><clipPath><path d="M332 352.433h267.204V131.518H332v220.915z"/></clipPath><clipPath><path d="M331.6 352.832h267.205V131.918H331.6v220.914z"/></clipPath><clipPath><path d="M331.2 353.23h267.205V132.318H331.2V353.23z"/></clipPath><clipPath><path d="M330.8 353.63h267.205V132.718H330.8V353.63z"/></clipPath><clipPath><path d="M330.4 354.03h267.206V133.117H330.4V354.03z"/></clipPath><clipPath><path d="M330 354.43h267.206V133.518H330V354.43z"/></clipPath><clipPath><path d="M329.6 354.83h267.207V133.916H329.6V354.83z"/></clipPath><clipPath><path d="M329.202 355.23h267.205V134.313H329.202V355.23z"/></clipPath><clipPath><path d="M328.803 355.63h267.204V134.714H328.803V355.63z"/></clipPath><clipPath><path d="M328.402 356.028h267.205V135.115H328.402v220.913z"/></clipPath><clipPath><path d="M328.003 356.428h267.205V135.514H328.003v220.914z"/></clipPath><clipPath><path d="M327.604 356.827H594.81V135.914H327.604v220.913z"/></clipPath><clipPath><path d="M327.204 357.227H594.41V136.313H327.203v220.914z"/></clipPath><clipPath><path d="M326.804 357.627H594.01V136.713H326.804v220.914z"/></clipPath><clipPath><path d="M326.405 358.026H593.61V137.112H326.405v220.914z"/></clipPath><clipPath><path d="M326.006 358.426H593.21V137.512H326.006v220.914z"/></clipPath><clipPath><path d="M325.606 358.825H592.81V137.91H325.607v220.915z"/></clipPath><clipPath><path d="M325.206 359.225H592.41V138.312H325.207v220.913z"/></clipPath><clipPath><path d="M324.807 359.625h267.205V138.71H324.807v220.915z"/></clipPath><clipPath><path d="M324.407 360.023h267.205V139.11H324.407v220.913z"/></clipPath><clipPath><path d="M324.008 360.424h267.205V139.51H324.008v220.914z"/></clipPath><clipPath><path d="M323.607 360.824h267.206V139.91H323.607v220.914z"/></clipPath><clipPath><path d="M323.208 361.223h267.205V140.31H323.208v220.913z"/></clipPath><clipPath><path d="M322.81 361.623h267.205V140.708H322.81v220.915z"/></clipPath><clipPath><path d="M322.41 362.02h267.204V141.108H322.41V362.02z"/></clipPath><clipPath><path d="M322.01 362.422h267.204V141.508H322.01v220.914z"/></clipPath><clipPath><path d="M321.61 362.82h267.205V141.908H321.61V362.82z"/></clipPath><clipPath><path d="M321.21 363.22h267.206V142.308H321.21V363.22z"/></clipPath><clipPath><path d="M320.81 363.62h267.207V142.706H320.81V363.62z"/></clipPath><clipPath><path d="M320.41 364.02h267.206V143.106H320.41V364.02z"/></clipPath><clipPath><path d="M320.012 364.42h267.205V143.506H320.012V364.42z"/></clipPath><clipPath><path d="M319.612 364.82h267.205V143.903H319.612V364.82z"/></clipPath><clipPath><path d="M319.213 365.22h267.204V144.304H319.213V365.22z"/></clipPath><clipPath><path d="M318.813 365.618h267.205V144.705H318.813v220.913z"/></clipPath><clipPath><path d="M318.413 366.018h267.205V145.104H318.413v220.914z"/></clipPath><clipPath><path d="M318.015 366.417H585.22V145.503H318.015v220.914z"/></clipPath><clipPath><path d="M317.614 366.816H584.82V145.902H317.613v220.914z"/></clipPath><clipPath><path d="M317.215 367.217H584.42V146.303H317.215v220.914z"/></clipPath><clipPath><path d="M316.815 367.616H584.02V146.702H316.816v220.914z"/></clipPath><clipPath><path d="M316.416 368.016H583.62V147.102H316.417v220.914z"/></clipPath><clipPath><path d="M316.016 368.415h267.206V147.5H316.016v220.915z"/></clipPath><clipPath><path d="M315.616 368.814H582.82V147.9H315.617v220.914z"/></clipPath><clipPath><path d="M315.217 369.215h267.206V148.3H315.217v220.915z"/></clipPath><clipPath><path d="M314.817 369.613h267.205V148.7H314.817v220.913z"/></clipPath><clipPath><path d="M314.418 370.014h267.205V149.1H314.418v220.914z"/></clipPath><clipPath><path d="M314.02 370.413h267.204V149.5H314.02v220.913z"/></clipPath><clipPath><path d="M313.618 370.812h267.205V149.898H313.618v220.914z"/></clipPath><clipPath><path d="M313.22 371.212h267.205V150.298H313.22v220.914z"/></clipPath><clipPath><path d="M312.82 371.61h267.204V150.698H312.82V371.61z"/></clipPath><clipPath><path d="M312.42 372.012h267.204V151.098H312.42v220.914z"/></clipPath><clipPath><path d="M312.02 372.41h267.206V151.497H312.02V372.41z"/></clipPath><clipPath><path d="M311.62 372.81h267.206V151.897H311.62V372.81z"/></clipPath><clipPath><path d="M311.222 373.21h267.205V152.296H311.222V373.21z"/></clipPath><clipPath><path d="M310.82 373.61h267.206V152.694H310.82V373.61z"/></clipPath><clipPath><path d="M310.422 374.01h267.205V153.094H310.422V374.01z"/></clipPath><clipPath><path d="M310.022 374.408h267.206V153.494H310.022v220.914z"/></clipPath><clipPath><path d="M309.623 374.81h267.204V153.894H309.623V374.81z"/></clipPath><clipPath><path d="M309.224 375.208H576.43V154.294H309.223v220.914z"/></clipPath><clipPath><path d="M308.823 375.607h267.205V154.693H308.823v220.914z"/></clipPath><clipPath><path d="M308.424 376.007H575.63V155.094H308.423v220.913z"/></clipPath><clipPath><path d="M308.024 376.406H575.23V155.492H308.023v220.914z"/></clipPath><clipPath><path d="M307.625 376.806H574.83V155.893H307.625v220.913z"/></clipPath><clipPath><path d="M307.226 377.205H574.43V156.292H307.227v220.913z"/></clipPath><clipPath><path d="M306.825 377.605H574.03V156.69H306.825v220.915z"/></clipPath><clipPath><path d="M306.427 378.005h267.205V157.09H306.427v220.915z"/></clipPath><clipPath><path d="M306.026 378.404H573.23V157.49H306.027v220.914z"/></clipPath><clipPath><path d="M305.627 378.804h267.205V157.89H305.627v220.914z"/></clipPath><clipPath><path d="M305.228 379.203h267.205V158.29H305.228v220.913z"/></clipPath><clipPath><path d="M304.828 379.604h267.205V158.69H304.828v220.914z"/></clipPath><clipPath><path d="M304.43 380.003h267.204V159.09H304.43v220.913z"/></clipPath><clipPath><path d="M304.028 380.402h267.206V159.488H304.028v220.914z"/></clipPath><clipPath><path d="M303.63 380.802h267.205V159.888H303.63v220.914z"/></clipPath><clipPath><path d="M303.23 381.2h267.205V160.288H303.23V381.2z"/></clipPath><clipPath><path d="M302.83 381.6h267.205V160.69H302.83V381.6z"/></clipPath><clipPath><path d="M302.43 382h267.206V161.086H302.43V382z"/></clipPath><clipPath><path d="M302.03 382.4h267.206V161.486H302.03V382.4z"/></clipPath><clipPath><path d="M301.632 382.8h267.205V161.886H301.632V382.8z"/></clipPath><clipPath><path d="M301.23 383.2h267.207V162.284H301.23V383.2z"/></clipPath><clipPath><path d="M300.832 383.6h267.205V162.684H300.832V383.6z"/></clipPath><clipPath><path d="M300.433 383.998h267.205V163.084H300.433v220.914z"/></clipPath><clipPath><path d="M300.033 384.398h267.205V163.484H300.033v220.914z"/></clipPath><clipPath><path d="M299.634 384.798H566.84V163.883H299.633v220.915z"/></clipPath><clipPath><path d="M299.234 385.197h267.204V164.283H299.234v220.914z"/></clipPath><clipPath><path d="M298.834 385.597H566.04V164.683H298.834v220.914z"/></clipPath><clipPath><path d="M298.435 385.996H565.64V165.082H298.435v220.914z"/></clipPath><clipPath><path d="M298.035 386.396H565.24V165.48H298.035v220.916z"/></clipPath><clipPath><path d="M297.636 386.796H564.84V165.88H297.637v220.916z"/></clipPath><clipPath><path d="M297.236 387.194H564.44V166.28H297.237v220.914z"/></clipPath><clipPath><path d="M296.837 387.594h267.205V166.68H296.837v220.914z"/></clipPath><clipPath><path d="M296.437 387.994h267.205V167.08H296.437v220.914z"/></clipPath><clipPath><path d="M296.037 388.394h267.205V167.48H296.037v220.914z"/></clipPath><clipPath><path d="M295.638 388.793h267.205V167.88H295.638v220.913z"/></clipPath><clipPath><path d="M295.238 389.192h267.205V168.278H295.238v220.914z"/></clipPath><clipPath><path d="M294.84 389.592h267.204V168.678H294.84v220.914z"/></clipPath><clipPath><path d="M294.438 389.992h267.206V169.078H294.438v220.914z"/></clipPath><clipPath><path d="M294.04 390.392h267.204V169.478H294.04v220.914z"/></clipPath><clipPath><path d="M293.64 390.79h267.205V169.878H293.64V390.79z"/></clipPath><clipPath><path d="M293.24 391.19h267.205V170.277H293.24V391.19z"/></clipPath><clipPath><path d="M292.84 391.59h267.206V170.676H292.84V391.59z"/></clipPath><clipPath><path d="M292.44 391.99h267.206V171.076H292.44V391.99z"/></clipPath><clipPath><path d="M292.042 392.39h267.205V171.476H292.042V392.39z"/></clipPath><clipPath><path d="M291.642 392.79h267.205V171.874H291.642V392.79z"/></clipPath><clipPath><path d="M291.243 393.188h267.204V172.274H291.243v220.914z"/></clipPath><clipPath><path d="M290.843 393.588h267.205V172.674H290.843v220.914z"/></clipPath><clipPath><path d="M290.443 393.987h267.205V173.074H290.443v220.913z"/></clipPath><clipPath><path d="M290.044 394.387H557.25V173.474H290.043v220.913z"/></clipPath><clipPath><path d="M289.645 394.787H556.85V173.873H289.645v220.914z"/></clipPath><clipPath><path d="M289.245 395.187H556.45V174.272H289.245v220.915z"/></clipPath><clipPath><path d="M288.845 395.586H556.05V174.672H288.845v220.914z"/></clipPath><clipPath><path d="M288.445 395.985H555.65V175.07H288.445v220.915z"/></clipPath><clipPath><path d="M288.046 396.385H555.25V175.47H288.047v220.915z"/></clipPath><clipPath><path d="M287.646 396.785h267.206V175.87H287.646v220.915z"/></clipPath><clipPath><path d="M287.247 397.185h267.205V176.27H287.247v220.915z"/></clipPath><clipPath><path d="M286.848 397.584h267.204V176.67H286.848v220.914z"/></clipPath><clipPath><path d="M286.447 397.983h267.205V177.07H286.447v220.913z"/></clipPath><clipPath><path d="M286.048 398.383h267.205V177.47H286.048v220.913z"/></clipPath><clipPath><path d="M285.648 398.782h267.206V177.868H285.648v220.914z"/></clipPath><clipPath><path d="M285.25 399.183h267.204V178.268H285.25v220.915z"/></clipPath><clipPath><path d="M284.85 399.582h267.205V178.668H284.85v220.914z"/></clipPath><clipPath><path d="M284.45 399.98h267.205V179.067H284.45V399.98z"/></clipPath><clipPath><path d="M284.05 400.38h267.205V179.468H284.05V400.38z"/></clipPath><clipPath><path d="M283.65 400.78h267.205V179.866H283.65V400.78z"/></clipPath><clipPath><path d="M283.25 401.18h267.206V180.266H283.25V401.18z"/></clipPath><clipPath><path d="M282.852 401.58h267.205V180.664H282.852V401.58z"/></clipPath><clipPath><path d="M282.452 401.98h267.205V181.063H282.452V401.98z"/></clipPath><clipPath><path d="M282.052 402.38h267.205V181.464H282.052V402.38z"/></clipPath><clipPath><path d="M281.653 402.778h267.204V181.864H281.653v220.914z"/></clipPath><clipPath><path d="M281.253 403.178h267.205V182.264H281.253v220.914z"/></clipPath><clipPath><path d="M280.854 403.577H548.06V182.663H280.853v220.914z"/></clipPath><clipPath><path d="M280.454 403.977H547.66V183.063H280.453v220.914z"/></clipPath><clipPath><path d="M280.054 404.377H547.26V183.462H280.053v220.915z"/></clipPath><clipPath><path d="M279.655 404.776H546.86V183.86H279.654v220.916z"/></clipPath><clipPath><path d="M279.255 405.176H546.46V184.262H279.255v220.914z"/></clipPath><clipPath><path d="M278.855 405.575H546.06V184.66H278.856v220.915z"/></clipPath><clipPath><path d="M278.456 405.975H545.66V185.06H278.457v220.915z"/></clipPath><clipPath><path d="M278.057 406.374h267.205V185.46H278.057v220.914z"/></clipPath><clipPath><path d="M277.657 406.773h267.205V185.86H277.657v220.913z"/></clipPath><clipPath><path d="M277.258 407.173h267.205V186.26H277.258v220.913z"/></clipPath><clipPath><path d="M276.857 407.573h267.206V186.66H276.857v220.913z"/></clipPath><clipPath><path d="M276.458 407.973h267.205V187.06H276.458v220.913z"/></clipPath><clipPath><path d="M276.06 408.372h267.204V187.458H276.06v220.914z"/></clipPath><clipPath><path d="M275.66 408.77h267.204V187.858H275.66V408.77z"/></clipPath><clipPath><path d="M275.26 409.17h267.205V188.26H275.26V409.17z"/></clipPath><clipPath><path d="M274.86 409.57h267.205V188.658H274.86V409.57z"/></clipPath><clipPath><path d="M274.46 409.97h267.205V189.058H274.46V409.97z"/></clipPath><clipPath><path d="M274.062 410.37h267.204V189.456H274.062V410.37z"/></clipPath><clipPath><path d="M273.66 410.77h267.206V189.855H273.66V410.77z"/></clipPath><clipPath><path d="M273.262 411.17h267.205V190.254H273.262V411.17z"/></clipPath><clipPath><path d="M272.862 411.57h267.205V190.654H272.862V411.57z"/></clipPath><clipPath><path d="M272.462 411.97h267.206V191.054H272.462V411.97z"/></clipPath><clipPath><path d="M272.062 412.368h267.206V191.454H272.062v220.914z"/></clipPath><clipPath><path d="M271.663 412.768h267.205V191.854H271.663v220.914z"/></clipPath><clipPath><path d="M271.264 413.167H538.47V192.253H271.263v220.914z"/></clipPath><clipPath><path d="M270.863 413.566H538.07V192.652H270.862v220.914z"/></clipPath><clipPath><path d="M270.465 413.966H537.67V193.052H270.465v220.914z"/></clipPath><clipPath><path d="M270.065 414.365H537.27V193.452H270.066v220.913z"/></clipPath><clipPath><path d="M269.666 414.766H536.87V193.852H269.666v220.914z"/></clipPath><clipPath><path d="M269.266 415.165H536.47V194.25H269.267v220.915z"/></clipPath><clipPath><path d="M268.866 415.564H536.07V194.65H268.867v220.914z"/></clipPath><clipPath><path d="M0 800h800V0H0v800z"/></clipPath><linearGradient x2="1" gradientUnits="userSpaceOnUse" gradientTransform="matrix(112.151 0 0 -112.151 290.14 308.208)"><stop offset="0" stop-color="#e1e1e1"/><stop offset="1" stop-color="#b7b5b5"/></linearGradient><linearGradient x2="1" gradientUnits="userSpaceOnUse" gradientTransform="matrix(102.063 0 0 -102.063 300.5 310.701)"><stop offset="0" stop-color="#e1e1e1"/><stop offset="1" stop-color="#bfbdbd"/></linearGradient><linearGradient x2="1" gradientUnits="userSpaceOnUse" gradientTransform="matrix(92.515 0 0 -92.515 309.776 314.397)"><stop offset="0" stop-color="#efefef"/><stop offset="1" stop-color="#d7d6d6"/></linearGradient><linearGradient x2="1" gradientUnits="userSpaceOnUse" gradientTransform="matrix(121.36 0 0 -121.36 277.509 223.881)"><stop offset="0" stop-color="#e1e1e1"/><stop offset="1" stop-color="#adacac"/></linearGradient><linearGradient x2="1" gradientUnits="userSpaceOnUse" gradientTransform="matrix(125.325 0 0 -125.325 402.291 223.41)"><stop offset="0" stop-color="#bab8b8"/><stop offset="1" stop-color="#d2d2d2"/></linearGradient><clipPath><path d="M0 800h800V0H0v800z"/></clipPath><linearGradient x2="1" gradientUnits="userSpaceOnUse" gradientTransform="matrix(112.151 0 0 -112.151 290.14 308.208)"><stop offset="0" stop-color="#e1e1e1"/><stop offset="1" stop-color="#b7b5b5"/></linearGradient><linearGradient x2="1" gradientUnits="userSpaceOnUse" gradientTransform="matrix(102.063 0 0 -102.063 300.5 310.701)"><stop offset="0" stop-color="#e1e1e1"/><stop offset="1" stop-color="#bfbdbd"/></linearGradient><linearGradient x2="1" gradientUnits="userSpaceOnUse" gradientTransform="matrix(92.515 0 0 -92.515 309.776 314.397)"><stop offset="0" stop-color="#efefef"/><stop offset="1" stop-color="#d7d6d6"/></linearGradient><linearGradient x2="1" gradientUnits="userSpaceOnUse" gradientTransform="matrix(121.36 0 0 -121.36 277.509 223.881)"><stop offset="0" stop-color="#e1e1e1"/><stop offset="1" stop-color="#adacac"/></linearGradient><linearGradient x2="1" gradientUnits="userSpaceOnUse" gradientTransform="matrix(125.325 0 0 -125.325 402.291 223.41)"><stop offset="0" stop-color="#bab8b8"/><stop offset="1" stop-color="#d2d2d2"/></linearGradient><clipPath><path d="M0 800h800V0H0v800z"/></clipPath><linearGradient x2="1" gradientUnits="userSpaceOnUse" gradientTransform="matrix(112.151 0 0 -112.151 290.14 308.208)" id="a"><stop offset="0" stop-color="#e1e1e1"/><stop offset="1" stop-color="#b7b5b5"/></linearGradient><linearGradient x2="1" gradientUnits="userSpaceOnUse" gradientTransform="matrix(102.063 0 0 -102.063 300.5 310.701)" id="b"><stop offset="0" stop-color="#e1e1e1"/><stop offset="1" stop-color="#bfbdbd"/></linearGradient><linearGradient x2="1" gradientUnits="userSpaceOnUse" gradientTransform="matrix(92.515 0 0 -92.515 309.776 314.397)" id="c"><stop offset="0" stop-color="#efefef"/><stop offset="1" stop-color="#d7d6d6"/></linearGradient><linearGradient x2="1" gradientUnits="userSpaceOnUse" gradientTransform="matrix(121.36 0 0 -121.36 277.509 223.881)" id="d"><stop offset="0" stop-color="#e1e1e1"/><stop offset="1" stop-color="#adacac"/></linearGradient><linearGradient x2="1" gradientUnits="userSpaceOnUse" gradientTransform="matrix(125.325 0 0 -125.325 402.291 223.41)" id="e"><stop offset="0" stop-color="#bab8b8"/><stop offset="1" stop-color="#d2d2d2"/></linearGradient><clipPath id="l"><path d="M0 800h800V0H0v800z"/></clipPath><linearGradient xlink:href="#a" id="g" gradientUnits="userSpaceOnUse" gradientTransform="matrix(112.151 0 0 -112.151 290.14 308.208)" x2="1"/><linearGradient xlink:href="#b" id="h" gradientUnits="userSpaceOnUse" gradientTransform="matrix(102.063 0 0 -102.063 300.5 310.701)" x2="1"/><linearGradient xlink:href="#c" id="i" gradientUnits="userSpaceOnUse" gradientTransform="matrix(92.515 0 0 -92.515 309.776 314.397)" x2="1"/><linearGradient xlink:href="#d" id="j" gradientUnits="userSpaceOnUse" gradientTransform="matrix(121.36 0 0 -121.36 277.509 223.881)" x1=".186" y1="-.007" x2="1"/><linearGradient xlink:href="#e" id="k" gradientUnits="userSpaceOnUse" gradientTransform="matrix(125.325 0 0 -125.325 402.291 223.41)" x2="1"/><linearGradient x2="1" gradientUnits="userSpaceOnUse" gradientTransform="matrix(112.151 0 0 -112.151 290.14 308.208)"><stop offset="0" stop-color="#e1e1e1"/><stop offset="1" stop-color="#b7b5b5"/></linearGradient><linearGradient x2="1" gradientUnits="userSpaceOnUse" gradientTransform="matrix(102.063 0 0 -102.063 300.5 310.701)"><stop offset="0" stop-color="#e1e1e1"/><stop offset="1" stop-color="#bfbdbd"/></linearGradient><linearGradient x2="1" gradientUnits="userSpaceOnUse" gradientTransform="matrix(92.515 0 0 -92.515 309.776 314.397)"><stop offset="0" stop-color="#efefef"/><stop offset="1" stop-color="#d7d6d6"/></linearGradient><linearGradient x2="1" gradientUnits="userSpaceOnUse" gradientTransform="matrix(121.36 0 0 -121.36 277.509 223.881)"><stop offset="0" stop-color="#e1e1e1"/><stop offset="1" stop-color="#adacac"/></linearGradient><linearGradient x2="1" gradientUnits="userSpaceOnUse" gradientTransform="matrix(125.325 0 0 -125.325 402.291 223.41)"><stop offset="0" stop-color="#bab8b8"/><stop offset="1" stop-color="#d2d2d2"/></linearGradient><clipPath><path d="M0 800h800V0H0v800z"/></clipPath></defs><g clip-path="url(#f)"><g><path d="M35.43 14.314l-3.524.124-3.523-.124c-.598-.02-1.544-.223-2.11-.45L.868 3.67c-.57-.226-1.03.17-1.03.885V52.89c0 .716.465 1.468 1.037 1.68l24.845 9.172c.572.21 1.52.383 2.12.383h8.128c.6 0 1.548-.173 2.12-.383l24.845-9.173c.572-.212 1.036-.964 1.036-1.68V4.556c0-.715-.46-1.11-1.027-.884L37.54 13.864c-.568.228-1.513.43-2.11.45" fill="#ccc"/><path d="M61.932 6.228v45.856L36.276 61.86s-.813-3.138-4.422-3.138c-3.61 0-4.964 3.137-4.964 3.137L1.906 52.083l-.01-45.87 3.042-1.823c15.586 1.05 21.92 12.245 24.14 12.777.988.233 1.952.324 2.84.336 2.212.04 3.87-.415 3.87-.415C39.17 6.718 57.92 5.658 57.92 5.658l4.012.57z" fill="#e8ebe7"/><path d="M57.842 5.895S36.284.305 31.604 22.67l.258 36.005s11.016-7.486 26.055-10.64z" fill="#f6f6f6"/></g><g><path d="M4.455 3.64v45.778s7.347-.557 26.312 9.37c.122.063.275.02.43-.023.14-.04.28-.08.398-.037l-.06-41.788S23.802 3.428 7.94 3.428c-1.12 0-2.282.067-3.485.212" fill="url(#g)"/><path d="M6.962 2.264v45.474s9.27-1.124 24.635 10.99l.064-41.793S25.623 2.07 10.108 2.068c-1.008 0-2.056.063-3.145.196" fill="url(#h)"/><path d="M9.207 44.78C24.37 47.903 31.595 58.73 31.595 58.73l-.06-41.788C26.008 1.108 9.464-.083 9.464-.083L9.206 44.78z" fill="url(#i)"/><path d="M4.458 49.423l-1.04 1.074 23.172 11.41s.82-2.233 4.177-3.12c-16.22-8.916-24.53-9.37-26.05-9.37-.174 0-.26.006-.26.006" fill="url(#j)"/><path d="M31.595 58.728c3.586 0 4.454 3.18 4.454 3.18l25.874-9.91-4.044-2.304s-.07-.002-.21-.002c-1.67 0-13.122.33-26.075 9.036" fill="url(#k)"/><g clip-path="url(#l)"><path d="M53.727 1.395S37.18 1.107 31.657 16.94l-.062 41.788s6.967-12.32 22.132-15.442V1.396z" fill="#f4f4f4"/><path d="M57.88 49.694l1.51-44.067h2.646l-.112 46.37z" fill="#dedede"/></g></g></g></svg>